<?xml version="1.0" encoding="utf-8"?><svg viewBox="0 0 180 180" xmlns="http://www.w3.org/2000/svg" xmlns:xlink="http://www.w3.org/1999/xlink"><style>:root>svg{display:none}:root>svg:target{display:block}</style><svg fill="none" viewBox="0 0 180 180" id="ellipse1" xmlns="http://www.w3.org/2000/svg"><circle cx="90" cy="90" r="76.5" stroke="#0AD9C6" stroke-width="27"/></svg><svg fill="none" viewBox="0 0 95 95" id="ellipse2" xmlns="http://www.w3.org/2000/svg"><circle cx="47.5" cy="47.5" r="39" stroke="#0AD9C6" stroke-width="17"/></svg><svg fill="none" viewBox="0 0 17 24" id="icon" xmlns="http://www.w3.org/2000/svg"><path d="M1.456 6.624c-.084-1.198.182-2.378.885-3.327.61-.86 1.404-1.33 2.362-1.605.806-.24 1.334.054 1.567.95.332 1.34.806 2.68.978 4.092.055.62-.347 1.5-.782 1.952-1.09 1.073-.863 1.854-.036 3.478.257.524.664 1.43 1.459 2.628.827 1.207 1.265 1.855 2.328 1.306 1.18-.594 2.041-.212 2.932.746.604.693 1.269 1.288 1.873 1.98.872 1.03.833 1.74.15 2.467-1.229 1.34-3.258 1.783-4.768.886-.833-.489-1.664-1.128-2.325-1.874-2.914-3.32-5.016-7.182-6.281-11.54a10.989 10.989 0 01-.342-2.139z" stroke="#0AD9C6" stroke-width="2" stroke-miterlimit="10"/></svg><svg fill="none" viewBox="0 0 68 21" id="logo" xmlns="http://www.w3.org/2000/svg"><path d="M13.364 0v20.046H10.07V5.822L8.973 7.207 6.825 9.975l-.095.095-.144-.095L4.44 7.207 3.34 5.775v14.27H0V0h3.34l3.39 4.295L10.07 0h3.294zM8.304 10.07l-.095-.095.095.095z" fill="#0AD9C6"/><path d="M8.448 9.975l-.096.095h-.047l.143-.095zM38.21 5.615l-9.128 6.701 2.113 2.878 9.127-6.701-2.113-2.878z" fill="#0AD9C6"/><path d="M26.667 3c-3.864 0-7.043 3.13-7.043 7.043 0 3.864 3.13 7.043 7.043 7.043 3.864 0 7.044-3.13 7.044-7.043C33.71 6.18 30.53 3 26.667 3zm0 10.271a3.225 3.225 0 01-3.228-3.228 3.225 3.225 0 013.228-3.228c1.761 0 3.228 1.467 3.228 3.228 0 1.76-1.467 3.228-3.228 3.228zM43.64 3c-3.864 0-7.044 3.13-7.044 7.043 0 3.864 3.13 7.043 7.044 7.043 3.864 0 7.043-3.13 7.043-7.043C50.633 6.18 47.503 3 43.64 3zm0 10.271a3.225 3.225 0 01-3.229-3.228 3.225 3.225 0 013.229-3.228c1.76 0 3.228 1.467 3.228 3.228 0 1.76-1.468 3.228-3.228 3.228zM67.598.239v20.045h-3.341V9.88L61.44 7.207l-2.1-2.052v15.13H56V.238h3.341l3.913 3.77 1.003.955V.239h3.34z" fill="#0AD9C6"/><path fill="#0AD9C6" d="M37 3h6v4h-6z"/></svg><svg fill="none" viewBox="0 0 65 65" id="play" xmlns="http://www.w3.org/2000/svg"><path fill-rule="evenodd" clip-rule="evenodd" d="M32.5 65C50.45 65 65 50.45 65 32.5S50.45 0 32.5 0 0 14.55 0 32.5 14.55 65 32.5 65z" fill="#0AD9C6"/><path fill-rule="evenodd" clip-rule="evenodd" d="M28.6 23.4l13 9.1-13 9.1V23.4z" fill="#070707"/></svg><svg fill="none" viewBox="0 0 47 47" id="rectangle1" xmlns="http://www.w3.org/2000/svg"><path stroke="#0AD9C6" stroke-width="8" d="M4 4h39v39H4z"/></svg><svg fill="none" viewBox="0 0 47 47" id="rectangle2" xmlns="http://www.w3.org/2000/svg"><path stroke="#0AD9C6" stroke-width="8" d="M4 4h39v39H4z"/></svg><svg fill="none" viewBox="0 0 8 12" id="shape" xmlns="http://www.w3.org/2000/svg"><path fill-rule="evenodd" clip-rule="evenodd" d="M0 1.4L4.6 6 0 10.6 1.4 12l6-6-6-6L0 1.4z" fill="#2C2E3F" fill-opacity=".5"/></svg><svg fill="none" viewBox="0 0 26 20" id="vector" xmlns="http://www.w3.org/2000/svg"><path d="M24.227 0H1.773C.768 0 0 .765 0 1.765v16.47C0 19.235.768 20 1.773 20h22.454C25.232 20 26 19.235 26 18.235V1.765C26 .765 25.232 0 24.227 0zm0 17l-4.668-4.647a.86.86 0 00-1.24 0 .85.85 0 000 1.235l4.667 4.647H3.014l4.668-4.647a.85.85 0 000-1.235.86.86 0 00-1.241 0L1.773 17V5.706l10.636 8a.955.955 0 00.532.176.955.955 0 00.532-.176l10.754-8V17zm0-15.235V3.47l-11.286 8.352L1.773 3.471V1.765h22.454z" fill="#0AD9C6"/></svg></svg>